<?xml version="1.0" ?><svg data-name="Layer 1" id="Layer_1" viewBox="0 0 100 100" xmlns="http://www.w3.org/2000/svg"><title/><path d="M50,95A45,45,0,1,0,5,50,45.00066,45.00066,0,0,0,50,95ZM19.59448,19.59448A42.99965,42.99965,0,1,1,7,50,42.86087,42.86087,0,0,1,19.59448,19.59448Z"/><path d="M40.21655,52.23639,69.03247,70.59534a2.54641,2.54641,0,0,0,1.37195.40454,2.5882,2.5882,0,0,0,1.81006-.7475A2.64081,2.64081,0,0,0,73,68.35889V31.64111a2.6407,2.6407,0,0,0-.78552-1.89349,2.58826,2.58826,0,0,0-1.81006-.74756,2.54639,2.54639,0,0,0-1.372.40466L40.21655,47.76355a2.66377,2.66377,0,0,0,0,4.47284Zm1.07471-2.78613L70.10718,31.09143a.541.541,0,0,1,.29724-.09137.59122.59122,0,0,1,.40777.17359A.63378.63378,0,0,1,71,31.64111V68.35889a.634.634,0,0,1-.18781.46746.591.591,0,0,1-.40777.17353.54084.54084,0,0,1-.29718-.09125l-28.816-18.35895a.66422.66422,0,0,1,0-1.09942Z"/><path d="M30,69h4a2.97391,2.97391,0,0,0,1.28748-.301A.9982.9982,0,0,0,37,68V32a.9982.9982,0,0,0-1.71252-.699A2.97391,2.97391,0,0,0,34,31H30a3.00042,3.00042,0,0,0-3,3V66A3.00045,3.00045,0,0,0,30,69ZM29,34a1.00193,1.00193,0,0,1,1-1h4a1.00193,1.00193,0,0,1,1,1V66a1.002,1.002,0,0,1-1,1H30a1.002,1.002,0,0,1-1-1Z"/></svg>