<?xml version="1.0" ?><svg data-name="Layer 1" id="Layer_1" viewBox="0 0 100 100" xmlns="http://www.w3.org/2000/svg"><title/><path d="M50,5A45,45,0,1,0,95,50,45.00058,45.00058,0,0,0,50,5ZM80.40552,80.40552A42.99965,42.99965,0,1,1,93,50,42.86137,42.86137,0,0,1,80.40552,80.40552Z"/><path d="M59.78345,47.76355,30.96753,29.40466a2.54693,2.54693,0,0,0-1.37195-.4046,2.58829,2.58829,0,0,0-1.81012.74756A2.64076,2.64076,0,0,0,27,31.64111V68.35889a2.64092,2.64092,0,0,0,.7854,1.89343,2.588,2.588,0,0,0,1.81012.74756,2.54632,2.54632,0,0,0,1.372-.4046L59.78345,52.23645a2.66383,2.66383,0,0,0,0-4.4729Zm-1.07477,2.78619L29.89282,68.90857a.5411.5411,0,0,1-.2973.09131.59079.59079,0,0,1-.40771-.17353A.63378.63378,0,0,1,29,68.35889V31.64111a.63378.63378,0,0,1,.18781-.46746.59111.59111,0,0,1,.40777-.17359.54119.54119,0,0,1,.2973.09137L58.70874,49.45032a.66419.66419,0,0,1-.00006,1.09942Z"/><path d="M70,31H66a3.00042,3.00042,0,0,0-3,3V66a3.00045,3.00045,0,0,0,3,3h4a3.00045,3.00045,0,0,0,3-3V34A3.00042,3.00042,0,0,0,70,31Zm1,35a1.002,1.002,0,0,1-1,1H66a1.002,1.002,0,0,1-1-1V34a1.00193,1.00193,0,0,1,1-1h4a1.00193,1.00193,0,0,1,1,1Z"/></svg>